<svg width="101px" height="105px" viewBox="0 0 101 105" version="1.1" xmlns="http://www.w3.org/2000/svg" xmlns:xlink="http://www.w3.org/1999/xlink">
	<g id="Confidence" transform="translate(-11.000000, -6.000000)">
		<circle id="BG-Circle" fill="#EDEFF3" fill-rule="nonzero" cx="50.53664" cy="70.513146" r="39.53664"></circle>
		<path d="M59.0081871,84.8701647 C65.3410558,92.9116127 73.089714,100.570078 82.4205496,106.410241 C90.2585399,85.8355165 111.078202,85.1007049 111.078202,64.7709177 C88.2990423,61.5867342 77.5218057,40.0727634 61.3559508,39.3379518 C56.4572069,49.1354396 42.233741,63.5700491 59.0081871,84.8701647 Z" id="Cape" fill="#D4DCE6" fill-rule="nonzero"></path>
		<path d="M50.0685901,8.06804943 C56.2677125,8.06804943 61.488026,12.6358238 62.4668348,18.5086766 L62.47772,18.6925544 C62.6038556,20.2261698 63.789392,29.4678394 64.0981828,32.864539 C64.0981828,33.5170782 63.7719132,34.1696174 63.119374,34.1696174 L36.6915365,34.1696174 C36.1011342,34.1696174 35.5974827,33.8708296 35.7127277,33.1908086 L35.8460135,31.8390183 C36.3029051,27.4471983 37.3784199,18.7662579 37.6703453,18.182407 C38.9754237,12.6358238 43.8694677,8.06804943 50.0685901,8.06804943 Z M78.8825679,13.1792476 L80.5702984,17.6798623 C80.7578241,18.0549135 81.1328753,18.4299648 81.5079265,18.6174904 L86.0085412,20.3052209 C86.7586437,20.4927465 86.7586437,21.6179002 86.0085412,21.8054258 L81.5079265,23.4931563 C81.1328753,23.6806819 80.7578241,24.0557331 80.5702984,24.4307844 L78.8825679,28.9313991 C78.6950423,29.6815015 77.5698886,29.6815015 77.382363,28.9313991 L75.6946325,24.4307844 C75.5071069,24.0557331 75.1320557,23.6806819 74.7570044,23.4931563 L70.2563897,21.8054258 C69.5062873,21.6179002 69.5062873,20.4927465 70.2563897,20.3052209 L74.7570044,18.6174904 C75.1320557,18.4299648 75.5071069,18.0549135 75.6946325,17.6798623 L77.382363,13.1792476 C77.7574142,12.4291452 78.6950423,12.4291452 78.8825679,13.1792476 Z M91.4073651,6.32304217 L92.5719376,9.23481682 C92.7594633,9.42234243 92.9469889,9.79739366 93.1345145,9.79739366 L95.9473987,10.9225473 C96.3224499,11.1100729 96.3224499,11.6726498 95.9473987,11.8601754 L93.3220401,13.1728547 C93.1345145,13.3603803 92.7594633,13.5479059 92.7594633,13.7354315 L91.446784,16.5483157 C91.2592584,16.9233669 90.6966815,16.9233669 90.5091559,16.5483157 L89.3840022,13.7354315 C89.1964766,13.5479059 89.008951,13.1728547 88.8214254,13.1728547 L85.8210156,11.8601754 C85.4459644,11.6726498 85.4459644,11.1100729 85.8210156,10.9225473 L88.6338998,9.79739366 C88.8214254,9.60986804 89.1964766,9.42234243 89.1964766,9.23481682 L90.3216303,6.42193263 C90.6732408,5.89451684 91.1896688,5.86155336 91.4073651,6.32304217 L91.4073651,6.32304217 Z" id="Hair-Sparkle" fill="#000F38" fill-rule="nonzero"></path>
		<path d="M57.5727909,39.2449222 L57.5727909,60.9750303 L40.2805021,60.9750303 L40.2805021,39.2449222 L57.5727909,39.2449222 Z M45.744735,16.8243158 C46.2199715,17.5950316 46.9798395,18.3781237 48.1109725,19.1612158 C51.289133,21.5448362 55.9722037,23.7134694 59.193445,22.7003757 C58.955462,29.3626007 54.8101163,36.127235 49.7423205,36.127235 C44.5220069,36.127235 40.2805021,29.2755734 40.2805021,22.0976422 C40.2805021,21.4320324 40.3494572,20.7876395 40.4806042,20.1698741 C42.1069653,18.195502 44.4145574,17.2386243 45.744735,16.8243158 Z" id="Shirt-and-Head" fill="#FFFFFF" fill-rule="nonzero"></path>
		<path d="M49.0897813,43.3051661 C49.0897813,42.6869711 50.2610982,42.6544345 50.3843947,43.2075564 L50.3948597,43.3051661 L52.424745,54.1327617 L49.7423205,56.6822197 L47.059745,54.1327617 L49.0897813,43.3051661 Z" id="Color-2" fill="#e7303e"></path>
		<path d="M61.8688499,39.2110011 C63.7713701,39.2656724 65.6510205,40.3083771 66.7083396,42.0000877 L79.3190104,69.8614344 L79.432854,70.0592733 C80.0853932,71.3643517 79.7591236,72.66943 79.1065844,73.6482388 L68.013418,90.2879884 C67.9397618,90.3861966 67.8624105,90.4788622 67.7817812,90.565846 L69.3184964,97.13965 C69.3184964,97.7921892 68.9922268,98.4447284 68.3396876,98.4447284 C66.873369,98.6762524 65.411614,98.8803944 63.9533432,99.0571546 L63.2808255,107.950857 C59.4789032,109.244689 55.4166791,109.975652 51.1934577,110.04444 L51.0842168,99.906885 C50.0821411,99.9171821 49.0802061,99.9143492 48.0780531,99.8983863 L47.9700216,109.967812 C43.8269474,109.702341 39.8574872,108.79873 36.1588867,107.354225 L35.528432,99.0168018 C34.1793627,98.8495281 32.8272443,98.658837 31.4712229,98.4447284 C30.8621863,98.4447284 30.5373668,97.8762942 30.4967644,97.2699645 L30.4924141,97.13965 L31.9686226,90.4525895 L31.7974925,90.2879884 L20.7043262,73.6482388 C20.051787,72.66943 20.051787,71.3643517 20.3780566,70.0592733 L20.7043262,69.4067341 L32.2387966,43.8420112 C32.4099493,43.2701539 32.6574228,42.7401875 32.967813,42.2601545 C34.0046244,40.3072701 35.953006,39.1783627 38.0252428,39.2110011 C38.3155821,39.2155741 40.5899267,39.2155741 44.8482765,39.2110011 L43.2169285,50.4830973 L49.7423205,56.6822197 L56.2677125,50.4830973 L54.6363645,39.2110011 C59.1411071,39.2018942 61.5519356,39.2018942 61.8688499,39.2110011 Z M65.4232404,62.6109851 L65.0781808,63.7329104 L64.762312,64.8003641 C63.8788557,67.8517222 63.26642,70.5797493 63.4247318,71.8779067 L63.4456436,72.0168908 L65.738745,81.8293124 L70.5999022,71.5843349 L65.4232404,62.6109851 Z M34.2413764,63.1911562 L29.2174034,71.8995197 L33.887745,81.7593124 L36.0389973,72.0168908 C36.3009337,70.5762408 35.4062847,66.9801363 34.2413764,63.1911562 Z" id="Color" fill="#FC4F5F"></path>
	</g>
</svg>