<svg width="79px" height="109px" viewBox="0 0 79 109" version="1.1" xmlns="http://www.w3.org/2000/svg" xmlns:xlink="http://www.w3.org/1999/xlink">
	<g id="Hired" transform="translate(-10.000000, -2.000000)">
		<circle id="BG-Circle" fill="#EDEFF3" fill-rule="nonzero" cx="49.1248" cy="71.1248" r="39.1248"></circle>
		<path d="M40.4857979,46.1289088 C42.1095114,46.1289088 43.733225,46.8104676 44.8741677,47.8517379 L45.0704008,48.03916 L71.8139176,74.5916517 C74.2366752,77.0144093 74.2957669,81.0735511 71.9911925,83.3987465 L71.8139176,83.5698323 L54.4306317,100.953118 C52.0093883,103.374362 48.3169921,103.434893 45.8321911,101.134711 L45.6434762,100.953118 L18.7089342,70.9621744 L10.0003292,70.9625665 C10.0386598,61.5204631 13.4216679,52.867484 19.0259587,46.1270243 L40.4857979,46.1289088 Z" id="Hand" fill="#D4DCE6" fill-rule="nonzero"></path>
		<path d="M41.0588733,21.8666125 C41.6204871,26.3595233 45.3009299,30.118592 49.7629145,30.8065316 L50.0370539,30.8447931 C45.5441431,31.406407 41.7850744,35.0868498 41.0971348,39.5488344 L41.0588733,39.8229738 C40.4972594,35.3300629 36.8168166,31.5709942 32.354832,30.8830547 L32.0806926,30.8447931 C36.7568284,30.0966114 40.3340722,26.6011999 41.0190937,22.1518892 L41.0588733,21.8666125 Z M55.7678075,2 C56.531908,8.11280384 61.307536,12.8884318 67.4203398,13.6525323 C61.307536,14.4166328 56.531908,19.1922608 55.7678075,25.3050646 C55.003707,19.1922608 50.228079,14.4166328 44.1152752,13.6525323 C50.228079,12.8884318 55.003707,8.11280384 55.7678075,2 Z" id="Sparkle" fill="#000F38" fill-rule="nonzero"></path>
		<path d="M29.9936886,72.8950539 L30.1704414,73.0634507 L30.3388382,73.2402036 C32.0789385,75.1578859 32.0228062,78.0879902 30.1704414,79.940355 C32.0228062,78.0879902 34.9529106,78.031858 36.8705929,79.7719582 L37.0473458,79.940355 L37.2157426,80.1171079 C38.9558428,82.0347902 38.8997106,84.9648946 37.0473458,86.8172594 C38.8997106,84.9648946 41.8298149,84.9087623 43.7474972,86.6488626 L43.9242501,86.8172594 L44.0926469,86.9940122 C45.6332667,88.6918566 45.765879,91.1833053 44.4904837,93.0177722 C46.3320614,91.6564996 48.8919623,91.7623041 50.6248984,93.3351926 L50.8011544,93.5031386 L50.9621641,93.6915026 C52.4667106,95.5454549 52.4667106,98.3377265 50.9621641,100.191679 L50.8011544,100.380043 L49.6550037,101.526194 C47.0458801,103.948951 43.1640133,104.008043 40.6701905,101.703469 L22.1473864,83.3788072 C19.7246288,80.7696836 19.6655371,76.8878168 21.9701115,74.393994 L22.1473864,74.2096014 L23.2935371,73.0634507 C25.1459019,71.2110859 28.0760062,71.1549537 29.9936886,72.8950539 Z M79.0648179,45.9372202 C84.6816493,52.6069421 88.1105559,61.1799354 88.2454654,70.5501281 L88.2495894,71.1538532 L88.2495894,71.1538532 L77.162621,71.1531995 L72.969694,76.1865236 C72.675984,75.6086467 72.2907251,75.0684592 71.8139176,74.5916517 L56.421567,59.3088837 L55.7678075,59.3096421 L46.4075766,68.669873 C43.1601496,72.1083251 38.1934965,72.1083251 34.9460694,68.8608981 L31.125567,65.0403957 L48.3178278,47.8481349 C49.4639786,46.7019842 51.1832046,45.9378837 52.9024307,45.9378837 L79.0648179,45.9372202 Z" id="Color" fill="#FF4D5B"></path>
	</g>
</svg>