<?xml version="1.0" encoding="UTF-8"?>
<svg width="28px" height="24px" viewBox="0 0 28 24" version="1.1" xmlns="http://www.w3.org/2000/svg" xmlns:xlink="http://www.w3.org/1999/xlink">
    <title>185F0C2C-3109-4D43-B268-0F1030841100</title>
    <g id="Hardware-Connect" stroke="none" stroke-width="1" fill="none" fill-rule="evenodd">
        <g id="Header-Bar" transform="translate(-30.000000, -29.000000)" fill="#0F184D">
            <path d="M57,51 C57.5522847,51 58,51.4477153 58,52 C58,52.5522847 57.5522847,53 57,53 L31,53 C30.4477153,53 30,52.5522847 30,52 C30,51.4477153 30.4477153,51 31,51 L57,51 Z M57,40 C57.5522847,40 58,40.4477153 58,41 C58,41.5522847 57.5522847,42 57,42 L31,42 C30.4477153,42 30,41.5522847 30,41 C30,40.4477153 30.4477153,40 31,40 L57,40 Z M57,29 C57.5522847,29 58,29.4477153 58,30 C58,30.5522847 57.5522847,31 57,31 L31,31 C30.4477153,31 30,30.5522847 30,30 C30,29.4477153 30.4477153,29 31,29 L57,29 Z" id="Hamburger-Menu"></path>
        </g>
    </g>
</svg>