<svg width="103px" height="88px" viewBox="0 0 103 88" version="1.1" xmlns="http://www.w3.org/2000/svg" xmlns:xlink="http://www.w3.org/1999/xlink">
<g id="Land" transform="translate(-10.000000, -22.000000)">
<circle id="BG-Circle" fill="#EDEFF3" fill-rule="nonzero" cx="49.1248" cy="70.75712" r="39.1248"></circle>
<path d="M45.3913901,44.9430362 L46.24656,44.99968 C49.09776,45.18976 51.94896,45.37984 54.80016,45.37984 L72.28752,46.14016 C73.61808,46.14016 74.56848,47.28064 74.56848,48.6112 C74.3784,49.5616 73.80816,50.512 72.85776,50.70208 C67.15536,52.22272 61.45296,53.55328 55.75056,54.69376 L52.2174183,55.3977392 L50.4260115,55.7497288 L50.4309607,55.9198726 L50.4346877,56.2144 L50.4346877,69.52 L50.42832,70.09024 L50.9533208,109.839947 C50.3473097,109.867827 49.7377007,109.88192 49.1248,109.88192 C47.9204851,109.88192 46.7288791,109.827507 45.5523064,109.721005 L42.63504,92.51968 C42.1877318,89.7612793 41.7111837,87.0028787 41.216864,84.2330098 L41.0851999,83.8009892 C40.6072235,82.3039706 39.9487159,80.9981669 39.0959954,80.9277836 L39.02352,80.9311677 L38.95104,80.9298663 L38.8791891,80.9366413 C38.267501,81.0372988 37.7411087,81.7693819 37.3050872,82.7370324 L33.0536868,106.439389 C31.0092015,105.517125 29.0581917,104.424311 27.2187908,103.17908 L27.42864,91.3792 C27.5789057,85.6691032 27.6103805,79.9590064 27.6169732,74.3428186 C27.3546615,74.9538595 27.1021881,75.5633297 26.8584,76.1728 C25.84464,78.87616 24.6806933,81.57952 23.7670578,84.1493807 L23.43696,85.10656 C23.0568,86.24704 21.72624,87.00736 20.58576,86.6272 C19.44528,86.24704 18.87504,85.29664 18.87504,84.34624 C19.06512,80.9248 19.44528,77.69344 19.82544,74.272 L20.25609,71.81581 C20.69268,69.32992 21.156,66.76384 21.72624,64.19776 L22.1082022,62.8379699 L22.4723334,61.5863734 C23.2156914,59.0893406 24.0669394,56.6162834 25.33776,53.93344 L25.9140826,52.8872397 L26.31632,52.17344 C27.00624,50.97664 27.8088,49.75168 28.94928,48.6112 C29.89968,47.6608 30.85008,46.90048 32.37072,46.14016 C33.70128,45.37984 35.60208,44.8096 37.50288,44.8096 L37.88304,44.8096 C40.278048,44.638528 42.8270208,44.7753856 45.3913901,44.9430362 Z M39.02352,22 C44.2724343,22 48.52752,26.2550857 48.52752,31.504 C48.52752,36.7529143 44.2724343,41.008 39.02352,41.008 C33.7746057,41.008 29.51952,36.7529143 29.51952,31.504 C29.51952,26.2550857 33.7746057,22 39.02352,22 Z" id="Color" fill="#FF4D5B"></path>
<path d="M74.3784,22.76032 L74.3794388,100.640537 C72.6067924,102.140123 70.6989258,103.484831 68.6767237,104.653776 L68.676,22.76032 L74.3784,22.76032 Z" id="Flagpole" fill="#D4DCE6" fill-rule="nonzero"></path>
<polygon id="Flag" fill="#000F38" fill-rule="nonzero" points="95.2872 51.27232 68.676 51.27232 68.676 28.46272 83.882 28.46232 83.8824 22.76032 112.3944 22.76032 104.7912 34.16512 112.3944 45.56992 99.0888 45.56992 97.188 28.46272 95.2872 28.46272"></polygon>
</g>
</svg>