<svg id="Layer_1" data-name="Layer 1" xmlns="http://www.w3.org/2000/svg" viewBox="0 0 326.09 174.16"><defs><style>.cls-1{fill:#e54141;}.cls-2{fill:#3f3f3f;}</style></defs><title>MyInterviewPracticeLogo</title><path class="cls-1" d="M277.9,93.51H73.06a4.85,4.85,0,0,0-4.84,4.85v27.43a4.85,4.85,0,0,0,4.84,4.85H255.72v19l13.72-19h8.46a4.85,4.85,0,0,0,4.84-4.85V98.36A4.85,4.85,0,0,0,277.9,93.51ZM79.07,125H73.2V99h5.87Zm28.43,0h-4.93q-2.52-4.47-5.45-8.84A92.52,92.52,0,0,0,90.88,108V125h-5.8V99h4.78c.83.83,1.74,1.84,2.74,3s2,2.48,3.07,3.85,2.07,2.78,3.1,4.25,2,2.88,2.9,4.23V99h5.83ZM132.85,104H125V125h-5.87V104h-7.86V99h21.59ZM155.07,125H136.61V99h17.6v4.93H142.47V109h10.42v4.81H142.47v6.29h12.6Zm19.09,0c-.47-.85-1-1.72-1.45-2.59s-1-1.73-1.51-2.56-1-1.61-1.53-2.35a25,25,0,0,0-1.51-2h-2.9V125H159.4V99.35a33.34,33.34,0,0,1,4-.52q2-.15,3.66-.15c3.91,0,6.91.69,9,2.09a7.24,7.24,0,0,1,3.12,6.48,7.34,7.34,0,0,1-1.26,4.46,8.29,8.29,0,0,1-3.63,2.69c.53.65,1.08,1.4,1.66,2.24s1.15,1.71,1.71,2.63,1.11,1.87,1.64,2.86,1,2,1.46,2.91Zm31.55-20.41q-1.14,3.15-2.49,6.61t-2.86,7q-1.5,3.53-3.05,6.8h-5.6q-1.56-3.29-3.07-6.81t-2.88-7c-.9-2.31-1.74-4.51-2.5-6.62s-1.42-4-2-5.64h6.46q.74,2.26,1.63,4.87c.6,1.74,1.21,3.48,1.83,5.2s1.21,3.39,1.78,5,1.11,3,1.63,4.1c.49-1.14,1-2.51,1.6-4.09s1.19-3.24,1.8-5,1.23-3.47,1.83-5.21S201,100.5,201.48,99h6.25Q206.84,101.47,205.71,104.63ZM216.94,125h-5.87V99h5.87Zm24.48,0H223V99h17.6v4.93H228.82V109h10.42v4.81H228.82v6.29h12.6Zm33.21-12.79Q272.91,119,270.91,125h-5.37q-1.32-3.6-2.55-7.58t-2.44-7.95q-1.21,4-2.41,7.95T255.61,125h-5.36q-2-6-3.72-12.79t-3-13.27h6.36c.25,1.48.53,3,.83,4.61s.61,3.19.94,4.79.66,3.16,1,4.66.69,2.9,1,4.18c.46-1.23.9-2.53,1.32-3.91s.84-2.76,1.25-4.14.77-2.71,1.11-4,.64-2.41.92-3.42h5c.3,1,.63,2.19,1,3.48s.75,2.63,1.16,4,.83,2.75,1.26,4.13.84,2.66,1.24,3.84c.32-1.28.66-2.67,1-4.18s.66-3.05,1-4.66.6-3.2.89-4.79.56-3.13.81-4.61h6.1Q276.35,105.52,274.63,112.25Zm-101.54-5a3,3,0,0,1-1.43,2.82,10,10,0,0,1-4.74.82h-1.66v-7.07l1-.07c.34,0,.72,0,1.15,0a9,9,0,0,1,4.27.81A2.88,2.88,0,0,1,173.09,107.22Z" transform="translate(-12.44 -34.48)"/><path class="cls-2" d="M12.44,190.26a18.37,18.37,0,0,0,18.37,18.38H320.15a18.38,18.38,0,0,0,18.38-18.38ZM207.53,202h-64.1v-5.13h64.1ZM49,50.94a7.48,7.48,0,0,1,7.48-7.48H294.51A7.48,7.48,0,0,1,302,50.94V186.42h9V50.94a16.47,16.47,0,0,0-16.45-16.46h-238A16.47,16.47,0,0,0,40,50.94V186.42h9Zm126.5-15.2a3.17,3.17,0,1,1-3.17,3.16A3.16,3.16,0,0,1,175.48,35.74ZM148.31,77.08c-.56-1.27-1.06-2.44-1.51-3.49q-.37,4.55-.57,9c-.12,3-.22,5.74-.3,8.28h-5.71q.15-3.09.35-6.58c.14-2.34.29-4.66.45-7s.36-4.55.57-6.7.44-4.08.69-5.81h5.61c.45.83,1,1.85,1.56,3.07s1.21,2.53,1.85,4,1.28,2.86,1.9,4.34L155,80.36c.55-1.31,1.14-2.7,1.77-4.18s1.26-2.93,1.9-4.34,1.26-2.73,1.85-4,1.11-2.24,1.57-3.07h5.34q.38,2.59.69,5.81c.22,2.15.4,4.38.57,6.7s.31,4.64.45,7,.25,4.52.36,6.58h-5.72c-.08-2.54-.18-5.29-.3-8.28s-.32-6-.57-9l-1.5,3.49q-.84,1.92-1.65,3.84l-1.56,3.67c-.5,1.16-.93,2.16-1.28,3h-4.1c-.36-.83-.78-1.83-1.29-3L150,80.92C149.41,79.64,148.86,78.36,148.31,77.08ZM195.8,64.82Q193.66,69,191.36,73t-4.85,7.94v10h-5.87V81q-2.55-4-4.87-8t-4.45-8.2h6.8c.81,1.8,1.67,3.59,2.6,5.37s1.91,3.55,3,5.32c1.06-1.77,2.06-3.55,3-5.32s1.83-3.57,2.63-5.37ZM81,135.19c-1.08,0-2.33.05-3.76.15a33.29,33.29,0,0,0-4.06.52v25.69h5.87v-8.73h1.84q5.86,0,9-2.08c2.11-1.39,3.16-3.66,3.16-6.79s-1-5.35-3.12-6.71S84.91,135.19,81,135.19ZM85.5,147a10,10,0,0,1-4.59.82H79.07V140.3l1.07-.07c.41,0,.83,0,1.26,0a13.93,13.93,0,0,1,2.33.17,5,5,0,0,1,1.79.6,2.94,2.94,0,0,1,1.12,1.15,3.58,3.58,0,0,1,.4,1.8A3.19,3.19,0,0,1,85.5,147Zm30.4,1.22A8.39,8.39,0,0,0,114,137.27q-3.12-2.09-9-2.08c-1.07,0-2.3.05-3.66.15a33.34,33.34,0,0,0-4,.52v25.69h5.87V152h2.89c.5.61,1,1.28,1.51,2s1,1.52,1.53,2.35,1,1.68,1.51,2.56,1,1.74,1.45,2.59h6.56c-.45-1-.94-1.92-1.46-2.91s-1.08-1.95-1.64-2.86-1.13-1.79-1.71-2.64-1.13-1.58-1.66-2.23A8.29,8.29,0,0,0,115.9,148.22Zm-6.22-1.68a9.87,9.87,0,0,1-4.74.83h-1.65V140.3l1-.07c.33,0,.72,0,1.14,0a8.93,8.93,0,0,1,4.27.81,2.86,2.86,0,0,1,1.45,2.72A3,3,0,0,1,109.68,146.54Zm32.37.49q-1.26-3.15-2.51-6T137,135.49h-5.56q-1.32,2.7-2.55,5.54t-2.49,6c-.84,2.11-1.7,4.35-2.58,6.74s-1.81,5-2.79,7.78h6.09c.29-.9.59-1.83.92-2.78l1-2.86h10.18l1,2.85c.33,1,.64,1.89.93,2.79h6.29c-1-2.81-1.92-5.4-2.8-7.78S142.9,149.14,142.05,147Zm-11.67,4.22c.41-1.13.81-2.21,1.21-3.23s.76-2,1.08-2.83.61-1.6.86-2.25.45-1.17.58-1.55c.15.37.36.88.61,1.53s.55,1.41.89,2.26.69,1.8,1.06,2.83.76,2.11,1.16,3.24Zm21.67,7.29q-3.33-3.53-3.33-10a15.54,15.54,0,0,1,1-5.77,12.36,12.36,0,0,1,2.79-4.29,11.47,11.47,0,0,1,4.21-2.65,15.2,15.2,0,0,1,5.3-.9,17.32,17.32,0,0,1,3,.24,19.86,19.86,0,0,1,2.37.56,13,13,0,0,1,1.69.66c.45.23.78.4,1,.53l-1.69,4.74a14.22,14.22,0,0,0-2.8-1.09,13.46,13.46,0,0,0-3.63-.45,8.08,8.08,0,0,0-2.66.45A6,6,0,0,0,157,142a7.36,7.36,0,0,0-1.6,2.58,10.83,10.83,0,0,0-.6,3.84,13.82,13.82,0,0,0,.39,3.36,7.22,7.22,0,0,0,1.28,2.69,6.16,6.16,0,0,0,2.32,1.79,8.18,8.18,0,0,0,3.46.66,15.81,15.81,0,0,0,2.29-.15,16.53,16.53,0,0,0,1.81-.36,10.72,10.72,0,0,0,1.39-.47l1.09-.49,1.61,4.7a14,14,0,0,1-3.49,1.36,20.5,20.5,0,0,1-5.23.6Q155.37,162.08,152.05,158.54Zm28.56,3V140.49h-7.86v-5h21.59v5h-7.86v21.06Zm17.49,0V135.49H204v26.06Zm17.45-17a10.83,10.83,0,0,0-.6,3.84,13.82,13.82,0,0,0,.39,3.36,7.07,7.07,0,0,0,1.28,2.69,6.2,6.2,0,0,0,2.31,1.79,8.22,8.22,0,0,0,3.46.66,16,16,0,0,0,2.3-.15,16.32,16.32,0,0,0,1.8-.36,10.22,10.22,0,0,0,1.39-.47l1.09-.49,1.62,4.7a14.09,14.09,0,0,1-3.5,1.36,20.36,20.36,0,0,1-5.22.6q-6.36,0-9.69-3.54t-3.33-10a15.34,15.34,0,0,1,1-5.77,12.34,12.34,0,0,1,2.78-4.29,11.56,11.56,0,0,1,4.21-2.65,15.26,15.26,0,0,1,5.31-.9,17.21,17.21,0,0,1,3,.24,19.6,19.6,0,0,1,2.38.56,13.63,13.63,0,0,1,1.69.66c.45.23.77.4,1,.53l-1.69,4.74a13.74,13.74,0,0,0-2.8-1.09,13.35,13.35,0,0,0-3.63-.45,8.06,8.06,0,0,0-2.65.45,5.93,5.93,0,0,0-2.29,1.44A7.22,7.22,0,0,0,215.55,144.55Zm24.67-4.14v5.12h10.42v4.81H240.22v6.28h12.6v4.93H234.35V135.49H252v4.92Z" transform="translate(-12.44 -34.48)"/></svg>